<?xml version="1.0" encoding="UTF-8"?>
<svg version="1.1" xmlns="http://www.w3.org/2000/svg" width="48" height="48">
<path d="M0 0 C2.41823431 2.64494378 2.95036419 4.2554628 3.1875 7.8125 C3.0946875 8.8953125 3.0946875 8.8953125 3 10 C-2.01064686 11.93393388 -6.79905294 13.51401513 -12 15 C-6.39 15.33 -0.78 15.66 5 16 C5 17.65 5 19.3 5 21 C5.99 21 6.98 21 8 21 C8 28.26 8 35.52 8 43 C-3.22 43 -14.44 43 -26 43 C-26 42.01 -26 41.02 -26 40 C-26.804375 39.855625 -27.60875 39.71125 -28.4375 39.5625 C-31 39 -31 39 -32 38 C-32.04080783 36.00041636 -32.04254356 33.99954746 -32 32 C-31.01 32 -30.02 32 -29 32 C-28.67 33.32 -28.34 34.64 -28 36 C-27.34 36 -26.68 36 -26 36 C-26 31.05 -26 26.1 -26 21 C-16.76 21 -7.52 21 2 21 C2 20.34 2 19.68 2 19 C-8.23 19 -18.46 19 -29 19 C-29 21.97 -29 24.94 -29 28 C-29.99 28 -30.98 28 -32 28 C-32.28391135 24.89795604 -32.52121382 21.79405744 -32.75 18.6875 C-32.83121094 17.80642578 -32.91242187 16.92535156 -32.99609375 16.01757812 C-33.05410156 15.17001953 -33.11210938 14.32246094 -33.171875 13.44921875 C-33.2347168 12.66893311 -33.29755859 11.88864746 -33.36230469 11.0847168 C-33 9 -33 9 -31.28320312 7.32226562 C-27.34902348 5.04387416 -23.10533528 4.03235532 -18.75 2.8125 C-17.37521484 2.40354492 -17.37521484 2.40354492 -15.97265625 1.98632812 C-10.48570993 0.42477921 -5.70772321 -0.51653604 0 0 Z M-10 5 C-11.71711243 7.44496043 -11.71711243 7.44496043 -13 10 C-11.05000871 9.80528889 -11.05000871 9.80528889 -9 9 C-7.71563266 7.0162233 -7.71563266 7.0162233 -7 5 C-7.99 5 -8.98 5 -10 5 Z M-3 5 C-3 5.66 -3 6.32 -3 7 C-2.34 6.67 -1.68 6.34 -1 6 C-1.66 5.67 -2.32 5.34 -3 5 Z M-20.0625 8.875 C-22.22458462 10.76703874 -22.22458462 10.76703874 -22 13 C-19.9837767 12.28436734 -19.9837767 12.28436734 -18 11 C-17.19471111 8.94999129 -17.19471111 8.94999129 -17 7 C-18.3412413 6.88788787 -18.3412413 6.88788787 -20.0625 8.875 Z M-28 10 C-28.33 11.65 -28.66 13.3 -29 15 C-28.01 13.68 -27.02 12.36 -26 11 C-26.66 10.67 -27.32 10.34 -28 10 Z " fill="#8FC9F8" transform="translate(38,4)"/>
<path d="M0 0 C2.41823431 2.64494378 2.95036419 4.2554628 3.1875 7.8125 C3.0946875 8.8953125 3.0946875 8.8953125 3 10 C-2.01064686 11.93393388 -6.79905294 13.51401513 -12 15 C-6.39 15.33 -0.78 15.66 5 16 C5 17.98 5 19.96 5 22 C4.01 22 3.02 22 2 22 C2 21.01 2 20.02 2 19 C-8.23 19 -18.46 19 -29 19 C-29 21.97 -29 24.94 -29 28 C-29.99 28 -30.98 28 -32 28 C-32.28391135 24.89795604 -32.52121382 21.79405744 -32.75 18.6875 C-32.83121094 17.80642578 -32.91242187 16.92535156 -32.99609375 16.01757812 C-33.05410156 15.17001953 -33.11210938 14.32246094 -33.171875 13.44921875 C-33.2347168 12.66893311 -33.29755859 11.88864746 -33.36230469 11.0847168 C-33 9 -33 9 -31.28320312 7.32226562 C-27.34902348 5.04387416 -23.10533528 4.03235532 -18.75 2.8125 C-17.37521484 2.40354492 -17.37521484 2.40354492 -15.97265625 1.98632812 C-10.48570993 0.42477921 -5.70772321 -0.51653604 0 0 Z M-10 5 C-11.71711243 7.44496043 -11.71711243 7.44496043 -13 10 C-11.05000871 9.80528889 -11.05000871 9.80528889 -9 9 C-7.71563266 7.0162233 -7.71563266 7.0162233 -7 5 C-7.99 5 -8.98 5 -10 5 Z M-3 5 C-3 5.66 -3 6.32 -3 7 C-2.34 6.67 -1.68 6.34 -1 6 C-1.66 5.67 -2.32 5.34 -3 5 Z M-20.0625 8.875 C-22.22458462 10.76703874 -22.22458462 10.76703874 -22 13 C-19.9837767 12.28436734 -19.9837767 12.28436734 -18 11 C-17.19471111 8.94999129 -17.19471111 8.94999129 -17 7 C-18.3412413 6.88788787 -18.3412413 6.88788787 -20.0625 8.875 Z M-28 10 C-28.33 11.65 -28.66 13.3 -29 15 C-28.01 13.68 -27.02 12.36 -26 11 C-26.66 10.67 -27.32 10.34 -28 10 Z " fill="#17183E" transform="translate(38,4)"/>
<path d="M0 0 C0.99 0 1.98 0 3 0 C3.08121924 1.60332791 3.13929134 3.20784026 3.1875 4.8125 C3.23970703 6.15248047 3.23970703 6.15248047 3.29296875 7.51953125 C3 10 3 10 1.93310547 11.63232422 C-1.03860761 13.73481685 -3.62340516 13.37145785 -7.22265625 13.36328125 C-7.9239415 13.36377975 -8.62522675 13.36427826 -9.34776306 13.36479187 C-10.82798094 13.3624542 -12.30820301 13.35274363 -13.78833008 13.33618164 C-16.05781435 13.31254879 -18.32612676 13.31562728 -20.59570312 13.32226562 C-31.72086566 13.27913434 -31.72086566 13.27913434 -34 11 C-34.125 7.875 -34.125 7.875 -34 5 C-33.01 5 -32.02 5 -31 5 C-30.67 6.32 -30.34 7.64 -30 9 C-20.43 9 -10.86 9 -1 9 C-0.67 6.03 -0.34 3.06 0 0 Z " fill="#191B40" transform="translate(40,31)"/>
</svg>
