<?xml version="1.0" encoding="UTF-8"?>
<svg version="1.1" xmlns="http://www.w3.org/2000/svg" width="32" height="32">
<path d="M0 0 C0.33 1.65 0.66 3.3 1 5 C-7.91 7.97 -7.91 7.97 -17 11 C-10.73 11.33 -4.46 11.66 2 12 C3.41880263 14.83760526 3.1320472 17.27682975 3.125 20.4375 C3.12886719 22.16806641 3.12886719 22.16806641 3.1328125 23.93359375 C3 27 3 27 2 30 C-7.57 30 -17.14 30 -27 30 C-28.2263757 27.54724859 -28.11415314 25.9494219 -28.09765625 23.2109375 C-28.09443359 22.26992188 -28.09121094 21.32890625 -28.08789062 20.359375 C-28.07951172 19.37453125 -28.07113281 18.3896875 -28.0625 17.375 C-28.05798828 16.38242187 -28.05347656 15.38984375 -28.04882812 14.3671875 C-28.03702145 11.9113984 -28.020554 9.45572896 -28 7 C-24.65180504 5.81569021 -21.29562562 4.65581998 -17.9375 3.5 C-16.99455078 3.16613281 -16.05160156 2.83226562 -15.08007812 2.48828125 C-9.83448673 0.6971037 -5.54664534 -0.43080741 0 0 Z " fill="#BDC8E6" transform="translate(29,1)"/>
<path d="M0 0 C10.23 0.33 20.46 0.66 31 1 C31 9 31 9 30 12 C20.43 12 10.86 12 1 12 C0 10 0 10 0 0 Z " fill="#539FF5" transform="translate(1,19)"/>
<path d="M0 0 C2.06298828 -0.34057617 2.06298828 -0.34057617 4.5703125 -0.29296875 C5.46621094 -0.28330078 6.36210937 -0.27363281 7.28515625 -0.26367188 C8.69087891 -0.2259668 8.69087891 -0.2259668 10.125 -0.1875 C11.06988281 -0.17396484 12.01476562 -0.16042969 12.98828125 -0.14648438 C15.32608779 -0.11106306 17.66276237 -0.06167271 20 0 C20.33 2.31 20.66 4.62 21 7 C16.95834861 7.02915731 12.9167245 7.04685173 8.875 7.0625 C7.16183594 7.07506836 7.16183594 7.07506836 5.4140625 7.08789062 C4.30546875 7.09111328 3.196875 7.09433594 2.0546875 7.09765625 C0.53077393 7.10551147 0.53077393 7.10551147 -1.02392578 7.11352539 C-4.09114726 6.99652309 -6.98633134 6.56776417 -10 6 C-9.67 5.01 -9.34 4.02 -9 3 C-9 3.66 -9 4.32 -9 5 C-3.59212615 3.90213575 -3.59212615 3.90213575 0 0 Z " fill="#588DE5" transform="translate(11,13)"/>
<path d="M0 0 C1.72526042 1.07421875 3.45052083 2.1484375 5.17578125 3.22265625 C4.42578125 7.97265625 4.42578125 7.97265625 2.17578125 10.22265625 C-0.94921875 10.34765625 -0.94921875 10.34765625 -3.82421875 10.22265625 C-5.4314751 7.00814356 -4.8817006 3.78653089 -4.82421875 0.22265625 C-1.82421875 -0.77734375 -1.82421875 -0.77734375 0 0 Z " fill="#696E73" transform="translate(5.82421875,7.77734375)"/>
<path d="M0 0 C3.5 0.1875 3.5 0.1875 7 1 C7.66 1.99 8.32 2.98 9 4 C6.875 5.25 6.875 5.25 4 6 C0.6875 4.125 0.6875 4.125 -2 2 C-1.34 1.34 -0.68 0.68 0 0 Z " fill="#BFCAEC" transform="translate(7,6)"/>
<path d="M0 0 C2.9375 0.875 2.9375 0.875 4.3125 2.9375 C4.51875 3.576875 4.725 4.21625 4.9375 4.875 C2.8125 5.625 2.8125 5.625 -0.0625 5.875 C-3.375 3.9375 -3.375 3.9375 -6.0625 1.875 C-3.0625 -0.125 -3.0625 -0.125 0 0 Z " fill="#646466" transform="translate(16.0625,4.125)"/>
<path d="M0 0 C1.72526042 1.07421875 3.45052083 2.1484375 5.17578125 3.22265625 C4.51578125 3.88265625 3.85578125 4.54265625 3.17578125 5.22265625 C0.44708718 5.18978042 -2.12088055 4.65867854 -4.82421875 4.22265625 C-4.82421875 2.90265625 -4.82421875 1.58265625 -4.82421875 0.22265625 C-1.82421875 -0.77734375 -1.82421875 -0.77734375 0 0 Z " fill="#606060" transform="translate(5.82421875,7.77734375)"/>
<path d="M0 0 C1.98 0 3.96 0 6 0 C5.34 1.65 4.68 3.3 4 5 C2.02 5 0.04 5 -2 5 C-1.34 3.35 -0.68 1.7 0 0 Z " fill="#C2CFF1" transform="translate(11,13)"/>
<path d="M0 0 C1.98 0 3.96 0 6 0 C5.34 1.65 4.68 3.3 4 5 C2.35 5 0.7 5 -1 5 C-0.67 3.35 -0.34 1.7 0 0 Z " fill="#C2CEF0" transform="translate(22,13)"/>
<path d="M0 0 C1.65 0 3.3 0 5 0 C4.34 1.65 3.68 3.3 3 5 C1.35 5 -0.3 5 -2 5 C-1.34 3.35 -0.68 1.7 0 0 Z " fill="#686D76" transform="translate(17,13)"/>
<path d="M0 0 C2.31 0 4.62 0 7 0 C7.33 1.65 7.66 3.3 8 5 C4.20411134 4.45773019 2.52788007 2.79872437 0 0 Z " fill="#666768" transform="translate(22,1)"/>
<path d="M0 0 C1.98 0.495 1.98 0.495 4 1 C3.67 2.32 3.34 3.64 3 5 C1.68 5 0.36 5 -1 5 C-0.67 3.35 -0.34 1.7 0 0 Z " fill="#ECBC62" transform="translate(2,11)"/>
<path d="M0 0 C0.99 0 1.98 0 3 0 C3.33 1.65 3.66 3.3 4 5 C2.35 5 0.7 5 -1 5 C-0.67 3.35 -0.34 1.7 0 0 Z " fill="#676E76" transform="translate(28,13)"/>
</svg>
