<?xml version="1.0" encoding="UTF-8"?>
<svg version="1.1" xmlns="http://www.w3.org/2000/svg" width="128" height="128">
<path d="M0 0 C4.01276466 4.74235824 5.5144454 9.26091291 5.0625 15.4375 C-2.8487114 19.21059813 -11.03942695 21.84349677 -19.3828125 24.46484375 C-20.88116543 24.93991031 -22.37936201 25.41547027 -23.87741089 25.89149475 C-27.80583807 27.13852147 -31.73613235 28.37955187 -35.66693115 29.61907959 C-41.17402149 31.35683886 -46.67854783 33.10270521 -52.18331909 34.84779358 C-55.10445304 35.7738206 -58.02628589 36.69758442 -60.94876099 37.61936951 C-69.97542514 40.47067158 -78.96579556 43.41738278 -87.9375 46.4375 C-87.9375 47.0975 -87.9375 47.7575 -87.9375 48.4375 C-86.74146652 48.43083817 -85.54543304 48.42417633 -84.31315613 48.41731262 C-73.05626836 48.35656755 -61.79941373 48.31155913 -50.54239941 48.28206348 C-44.75467805 48.26638985 -38.96708872 48.2451205 -33.17944336 48.21118164 C-27.59681712 48.1786489 -22.01431808 48.16065979 -16.43160439 48.15286827 C-14.29888213 48.14731382 -12.16616704 48.13646771 -10.03349876 48.12030983 C-7.05237003 48.09861658 -4.07177079 48.09552969 -1.09057617 48.09692383 C-0.2036911 48.086138 0.68319397 48.07535217 1.59695435 48.0642395 C2.81477852 48.07042549 2.81477852 48.07042549 4.0572052 48.07673645 C4.76237683 48.07397107 5.46754847 48.07120569 6.19408894 48.06835651 C8.63691946 48.55098852 9.50578367 49.53640076 11.0625 51.4375 C12.33050271 53.97350543 12.20326039 55.76330164 12.22363281 58.60229492 C12.23324036 59.68069138 12.2428479 60.75908783 12.25274658 61.87016296 C12.25699646 63.04093887 12.26124634 64.21171478 12.265625 65.41796875 C12.27132507 66.61931961 12.27702515 67.82067047 12.28289795 69.0584259 C12.29235989 71.60640581 12.29888665 74.15439801 12.30273438 76.70239258 C12.31241667 80.59152799 12.34342014 84.48012986 12.375 88.36914062 C12.38153224 90.84374686 12.38678184 93.31835688 12.390625 95.79296875 C12.4029718 96.9536235 12.4153186 98.11427826 12.42803955 99.31010437 C12.41123602 105.43643065 12.2383051 110.11744367 9.0625 115.4375 C6.23709696 117.99352587 4.42316997 118.81339432 0.62892151 118.83190918 C-0.25283752 118.84325897 -1.13459656 118.85460876 -2.04307556 118.86630249 C-3.00266678 118.86337189 -3.962258 118.86044128 -4.95092773 118.85742188 C-5.96760529 118.86589142 -6.98428284 118.87436096 -8.0317688 118.88308716 C-11.3950041 118.90650049 -14.75778309 118.90747827 -18.12109375 118.90625 C-20.45752649 118.91334881 -22.79395748 118.9210474 -25.13038635 118.92932129 C-30.02878668 118.942776 -34.92702581 118.9443303 -39.82543945 118.93847656 C-46.10499764 118.93257893 -52.38378311 118.96317102 -58.6631918 119.00359344 C-63.48875603 119.02943265 -68.31413327 119.03235127 -73.13975716 119.02870178 C-75.45503749 119.03039649 -77.77032614 119.0400725 -80.08553886 119.05784607 C-83.32244587 119.07996069 -86.55777651 119.07037094 -89.79467773 119.05273438 C-90.75224472 119.06599762 -91.70981171 119.07926086 -92.69639587 119.09292603 C-97.30499869 119.03452884 -99.28173434 118.9527847 -103.00892639 116.02404785 C-105.71074605 112.40044448 -106.06715901 110.65701108 -106.11108398 106.19335938 C-106.13131874 104.55155701 -106.13131874 104.55155701 -106.15196228 102.87658691 C-106.16761986 101.09689514 -106.16761986 101.09689514 -106.18359375 99.28125 C-106.21652151 96.79036093 -106.24973333 94.2994756 -106.28320312 91.80859375 C-106.33072202 87.86477145 -106.3751641 83.92096548 -106.41430664 79.97705078 C-106.45386821 76.18245681 -106.50544195 72.38817443 -106.55859375 68.59375 C-106.5670079 67.40728882 -106.57542206 66.22082764 -106.58409119 64.99841309 C-106.60073318 63.90387817 -106.61737518 62.80934326 -106.63452148 61.68164062 C-106.64482895 60.71504517 -106.65513641 59.74844971 -106.66575623 58.75256348 C-106.71775049 56.24401585 -106.71775049 56.24401585 -108.9375 54.4375 C-109.44240056 51.0436027 -109.35424316 47.61468499 -109.375 44.1875 C-109.40787109 43.24519531 -109.44074219 42.30289063 -109.47460938 41.33203125 C-109.48169922 40.41292969 -109.48878906 39.49382813 -109.49609375 38.546875 C-109.51627563 37.29342285 -109.51627563 37.29342285 -109.53686523 36.01464844 C-108.68763445 32.36312903 -106.61418646 29.95700288 -103.9375 27.4375 C-100.86476135 25.9278717 -100.86476135 25.9278717 -97.38500977 24.84790039 C-96.7466217 24.64368973 -96.10823364 24.43947906 -95.45050049 24.2290802 C-93.34878861 23.56195011 -91.23948442 22.92362277 -89.12890625 22.28515625 C-87.64120439 21.81902282 -86.1540661 21.35108732 -84.66746521 20.88145447 C-80.74725759 19.64823982 -76.82001547 18.4391507 -72.89074707 17.23516846 C-68.97421726 16.03081304 -65.06448137 14.80484655 -61.15429688 13.58007812 C-56.60261377 12.15549171 -52.04993199 10.73460413 -47.49136353 9.33218384 C-41.02638514 7.34262158 -34.57324384 5.33831169 -28.15966797 3.18701172 C-27.1599144 2.85471054 -26.16016083 2.52240936 -25.13011169 2.18003845 C-23.35845827 1.58703937 -21.59053761 0.98267246 -19.82801819 0.36305237 C-13.37609006 -1.78572047 -6.23337471 -3.31562485 0 0 Z " fill="#54A0FE" transform="translate(112.9375,5.5625)"/>
<path d="M0 0 C4.01276466 4.74235824 5.5144454 9.26091291 5.0625 15.4375 C-2.8487114 19.21059813 -11.03942695 21.84349677 -19.3828125 24.46484375 C-20.88116543 24.93991031 -22.37936201 25.41547027 -23.87741089 25.89149475 C-27.80583807 27.13852147 -31.73613235 28.37955187 -35.66693115 29.61907959 C-41.17402149 31.35683886 -46.67854783 33.10270521 -52.18331909 34.84779358 C-55.10445304 35.7738206 -58.02628589 36.69758442 -60.94876099 37.61936951 C-69.97542514 40.47067158 -78.96579556 43.41738278 -87.9375 46.4375 C-87.9375 47.0975 -87.9375 47.7575 -87.9375 48.4375 C-86.74146652 48.43083817 -85.54543304 48.42417633 -84.31315613 48.41731262 C-73.05626836 48.35656755 -61.79941373 48.31155913 -50.54239941 48.28206348 C-44.75467805 48.26638985 -38.96708872 48.2451205 -33.17944336 48.21118164 C-27.59681712 48.1786489 -22.01431808 48.16065979 -16.43160439 48.15286827 C-14.29888213 48.14731382 -12.16616704 48.13646771 -10.03349876 48.12030983 C-7.05237003 48.09861658 -4.07177079 48.09552969 -1.09057617 48.09692383 C-0.2036911 48.086138 0.68319397 48.07535217 1.59695435 48.0642395 C2.81477852 48.07042549 2.81477852 48.07042549 4.0572052 48.07673645 C4.76237683 48.07397107 5.46754847 48.07120569 6.19408894 48.06835651 C8.63691946 48.55098852 9.50578367 49.53640076 11.0625 51.4375 C12.2888757 53.89025141 12.17665314 55.4880781 12.16015625 58.2265625 C12.15532227 59.63808594 12.15532227 59.63808594 12.15039062 61.078125 C12.13782227 62.55539063 12.13782227 62.55539063 12.125 64.0625 C12.12048828 65.05507812 12.11597656 66.04765625 12.11132812 67.0703125 C12.09952145 69.5261016 12.083054 71.98177104 12.0625 74.4375 C-0.68067495 74.35325957 -13.42372249 74.25844036 -26.16671562 74.14997292 C-32.08328769 74.09994696 -37.99984136 74.05361762 -43.91650391 74.015625 C-49.62239918 73.97885163 -55.32814274 73.93251366 -61.03390884 73.87943649 C-63.21485874 73.86085016 -65.39584121 73.84575802 -67.57683945 73.83415604 C-70.62283745 73.81736593 -73.66848475 73.78834884 -76.71435547 73.75634766 C-78.0781282 73.75310738 -78.0781282 73.75310738 -79.4694519 73.74980164 C-85.70939568 73.66560432 -85.70939568 73.66560432 -87.9375 71.4375 C-87.9375 70.4475 -87.9375 69.4575 -87.9375 68.4375 C-93.8775 68.1075 -99.8175 67.7775 -105.9375 67.4375 C-106.1328125 64.63802083 -106.328125 61.83854167 -106.5234375 59.0390625 C-106.70113964 56.28241121 -106.70113964 56.28241121 -108.9375 54.4375 C-109.44240056 51.0436027 -109.35424316 47.61468499 -109.375 44.1875 C-109.40787109 43.24519531 -109.44074219 42.30289063 -109.47460938 41.33203125 C-109.48169922 40.41292969 -109.48878906 39.49382813 -109.49609375 38.546875 C-109.51627563 37.29342285 -109.51627563 37.29342285 -109.53686523 36.01464844 C-108.68763445 32.36312903 -106.61418646 29.95700288 -103.9375 27.4375 C-100.86476135 25.9278717 -100.86476135 25.9278717 -97.38500977 24.84790039 C-96.7466217 24.64368973 -96.10823364 24.43947906 -95.45050049 24.2290802 C-93.34878861 23.56195011 -91.23948442 22.92362277 -89.12890625 22.28515625 C-87.64120439 21.81902282 -86.1540661 21.35108732 -84.66746521 20.88145447 C-80.74725759 19.64823982 -76.82001547 18.4391507 -72.89074707 17.23516846 C-68.97421726 16.03081304 -65.06448137 14.80484655 -61.15429688 13.58007812 C-56.60261377 12.15549171 -52.04993199 10.73460413 -47.49136353 9.33218384 C-41.02638514 7.34262158 -34.57324384 5.33831169 -28.15966797 3.18701172 C-27.1599144 2.85471054 -26.16016083 2.52240936 -25.13011169 2.18003845 C-23.35845827 1.58703937 -21.59053761 0.98267246 -19.82801819 0.36305237 C-13.37609006 -1.78572047 -6.23337471 -3.31562485 0 0 Z " fill="#CCD6F8" transform="translate(112.9375,5.5625)"/>
<path d="M0 0 C1.68240629 0.01853379 3.36488561 0.03125801 5.04737854 0.03846741 C8.55522653 0.06732496 12.05800646 0.14084189 15.56420898 0.25170898 C20.05919102 0.39378499 24.55117975 0.46147254 29.04812527 0.50089169 C33.34499499 0.54039563 37.64115569 0.61066407 41.9375 0.6875 C42.75589293 0.7007173 43.57428585 0.71393459 44.41747856 0.72755241 C46.7276155 0.77165243 49.03607464 0.8369491 51.34545898 0.90991211 C53.31542091 0.96325966 53.31542091 0.96325966 55.32518005 1.01768494 C58.50390625 1.47265625 58.50390625 1.47265625 60.3888092 2.88282776 C62.45880148 5.83408004 62.62304484 7.69565071 62.6015625 11.26171875 C62.59672852 12.67324219 62.59672852 12.67324219 62.59179688 14.11328125 C62.57922852 15.59054688 62.57922852 15.59054688 62.56640625 17.09765625 C62.56189453 18.09023437 62.55738281 19.0828125 62.55273438 20.10546875 C62.5409277 22.56125785 62.52446025 25.01692729 62.50390625 27.47265625 C49.7607313 27.38841582 37.01768376 27.29359661 24.27469063 27.18512917 C18.35811856 27.13510321 12.44156489 27.08877387 6.52490234 27.05078125 C0.81900707 27.01400788 -4.88673649 26.96766991 -10.59250259 26.91459274 C-12.77345249 26.89600641 -14.95443496 26.88091427 -17.1354332 26.86931229 C-20.1814312 26.85252218 -23.2270785 26.82350509 -26.27294922 26.79150391 C-27.63672195 26.78826363 -27.63672195 26.78826363 -29.02804565 26.78495789 C-35.26798943 26.70076057 -35.26798943 26.70076057 -37.49609375 24.47265625 C-37.12109375 22.34765625 -37.12109375 22.34765625 -36.49609375 20.47265625 C-34.18609375 20.47265625 -31.87609375 20.47265625 -29.49609375 20.47265625 C-29.24924332 19.79657822 -29.00239288 19.12050018 -28.74806213 18.42393494 C-22.34046417 3.31923457 -16.01607502 -0.64740253 0 0 Z " fill="#488BFF" transform="translate(62.49609375,52.52734375)"/>
<path d="M0 0 C2.44492788 1.59644371 4.9794143 3.02964247 7.51074219 4.48388672 C11.57151408 6.8554305 11.57151408 6.8554305 12.69824219 9.10888672 C6.75824219 11.08888672 0.81824219 13.06888672 -5.30175781 15.10888672 C-5.30175781 15.76888672 -5.30175781 16.42888672 -5.30175781 17.10888672 C1.29824219 17.10888672 7.89824219 17.10888672 14.69824219 17.10888672 C13.03808594 19.71305339 11.37792969 22.31722005 9.71777344 24.92138672 C7.73175235 27.8541341 7.73175235 27.8541341 6.81225586 30.25146484 C5.66726677 32.72172606 4.74509423 34.29705484 2.69824219 36.10888672 C-1.76791465 37.11187794 -6.0659691 36.86333644 -10.61425781 36.60888672 C-11.83177734 36.57279297 -13.04929687 36.53669922 -14.30371094 36.49951172 C-17.30626033 36.40531409 -20.3024042 36.27391305 -23.30175781 36.10888672 C-23.37523437 34.95259766 -23.37523437 34.95259766 -23.45019531 33.77294922 C-23.52496094 32.77005859 -23.59972656 31.76716797 -23.67675781 30.73388672 C-23.74636719 29.73615234 -23.81597656 28.73841797 -23.88769531 27.71044922 C-24.06539745 24.95379793 -24.06539745 24.95379793 -26.30175781 23.10888672 C-26.80665837 19.71498941 -26.71850097 16.28607171 -26.73925781 12.85888672 C-26.77212891 11.91658203 -26.805 10.97427734 -26.83886719 10.00341797 C-26.87331185 5.5381369 -26.88322829 2.16973962 -24.02050781 -1.41455078 C-15.106699 -9.53431341 -9.01726978 -5.97737579 0 0 Z " fill="#67686A" transform="translate(30.3017578125,36.89111328125)"/>
<path d="M0 0 C0.76344727 0.52553467 1.52689453 1.05106934 2.31347656 1.5925293 C3.15007813 2.16551758 3.98667969 2.73850586 4.84863281 3.32885742 C5.7084375 3.93536133 6.56824219 4.54186523 7.45410156 5.16674805 C8.76701172 6.05910156 8.76701172 6.05910156 10.10644531 6.96948242 C16.57084263 11.45447126 16.57084263 11.45447126 17.70410156 14.85424805 C14.64785776 15.89450935 11.58335044 16.90791964 8.51660156 17.91674805 C7.65228516 18.21129883 6.78796875 18.50584961 5.89746094 18.80932617 C5.05634766 19.08325195 4.21523438 19.35717773 3.34863281 19.6394043 C2.5788208 19.8960083 1.80900879 20.1526123 1.01586914 20.41699219 C-3.94504785 21.35531749 -7.41693934 19.43046317 -11.59667969 16.9128418 C-12.57314453 16.32954102 -13.54960938 15.74624023 -14.55566406 15.14526367 C-15.56306641 14.53360352 -16.57046875 13.92194336 -17.60839844 13.29174805 C-18.63513672 12.6762207 -19.661875 12.06069336 -20.71972656 11.42651367 C-23.2491035 9.90888751 -25.77423056 8.3846374 -28.29589844 6.85424805 C-24.52493542 4.3402727 -20.6990441 3.15076226 -16.42089844 1.72924805 C-15.6178125 1.45209961 -14.81472656 1.17495117 -13.98730469 0.8894043 C-13.20484375 0.62772461 -12.42238281 0.36604492 -11.61621094 0.09643555 C-10.9073877 -0.14220215 -10.19856445 -0.38083984 -9.46826172 -0.62670898 C-5.88227051 -1.48351021 -3.35017268 -1.67188009 0 0 Z " fill="#CBD6F8" transform="translate(47.2958984375,24.145751953125)"/>
<path d="M0 0 C1.64347155 1.43536963 3.24686195 2.91761112 4.8125 4.4375 C6.85774007 5.94044156 8.92023208 7.42021284 11 8.875 C12.60661934 10.05917957 14.21172423 11.24543294 15.8125 12.4375 C14.8125 14.4375 14.8125 14.4375 13.01831055 15.23120117 C10.51528831 16.03989422 8.01152348 16.84302382 5.5 17.625 C4.63181641 17.91052734 3.76363281 18.19605469 2.86914062 18.49023438 C2.02931641 18.75513672 1.18949219 19.02003906 0.32421875 19.29296875 C-0.44446533 19.53684326 -1.21314941 19.78071777 -2.00512695 20.03198242 C-6.42135674 20.85258402 -9.12476776 19.01543529 -12.69921875 16.56640625 C-13.53904297 15.99212891 -14.37886719 15.41785156 -15.24414062 14.82617188 C-16.11232422 14.22353516 -16.98050781 13.62089844 -17.875 13 C-18.75478516 12.40123047 -19.63457031 11.80246094 -20.54101562 11.18554688 C-27.05645576 6.69958848 -27.05645576 6.69958848 -28.1875 4.4375 C-6.64262426 -4.36348338 -6.64262426 -4.36348338 0 0 Z " fill="#666667" transform="translate(72.1875,17.5625)"/>
<path d="M0 0 C-2.06703398 6.86923413 -5.54676633 12.73302038 -9 19 C-17.58 19 -26.16 19 -35 19 C-27.44936433 0.12341082 -19.99902479 -2.27545793 0 0 Z " fill="#CDD8FA" transform="translate(68,54)"/>
<path d="M0 0 C7.92 0 15.84 0 24 0 C21.69486279 6.91541162 18.51575881 12.61954883 15 19 C7.41 19 -0.18 19 -8 19 C-7.27154839 16.08619355 -6.62169613 13.96575911 -5.37109375 11.328125 C-4.94848267 10.4294873 -4.94848267 10.4294873 -4.51733398 9.51269531 C-4.16098877 8.76600586 -3.80464355 8.01931641 -3.4375 7.25 C-1.7359375 3.66125 -1.7359375 3.66125 0 0 Z " fill="#CDD8FB" transform="translate(89,54)"/>
<path d="M0 0 C2.44492788 1.59644371 4.9794143 3.02964247 7.51074219 4.48388672 C11.57151408 6.8554305 11.57151408 6.8554305 12.69824219 9.10888672 C10.11701711 9.94928558 7.53360318 10.78139228 4.94824219 11.60888672 C4.21863281 11.84736328 3.48902344 12.08583984 2.73730469 12.33154297 C2.02832031 12.55712891 1.31933594 12.78271484 0.58886719 13.01513672 C-0.38518066 13.3293457 -0.38518066 13.3293457 -1.37890625 13.64990234 C-3.30175781 14.10888672 -3.30175781 14.10888672 -7.30175781 14.10888672 C-8.04425781 13.28388672 -8.78675781 12.45888672 -9.55175781 11.60888672 C-12.38403431 9.03408991 -12.80101467 8.71466017 -16.36425781 8.60888672 C-20.23962422 9.10099674 -21.52680623 9.54739295 -24.30175781 12.10888672 C-24.96175781 12.10888672 -25.62175781 12.10888672 -26.30175781 12.10888672 C-26.75997032 6.95654168 -26.95319394 3.2646605 -24.36425781 -1.32861328 C-14.99387005 -9.16914181 -9.34123506 -6.19212618 0 0 Z " fill="#676666" transform="translate(30.3017578125,36.89111328125)"/>
<path d="M0 0 C6.93 0 13.86 0 21 0 C20.07003546 4.64982269 18.58634571 8.17950646 16.4375 12.3125 C15.303125 14.519375 14.16875 16.72625 13 19 C5.74 19 -1.52 19 -9 19 C-6.69486279 12.08458838 -3.51575881 6.38045117 0 0 Z " fill="#67686B" transform="translate(68,54)"/>
<path d="M0 0 C3.02494363 1.77551039 4.56777614 3.35166421 6.5 6.25 C7.24952769 10.37240227 6.07797576 13.4178179 4 17 C1.32716024 19.3116452 -0.41552912 19.89835289 -3.875 20.5 C-8.19658295 19.80854673 -11.26396624 18.50773559 -14 15 C-14.96726929 11.46686066 -14.91148016 8.54141974 -14 5 C-10.67062341 -0.40873453 -5.75593729 -0.82227676 0 0 Z " fill="#FCC660" transform="translate(18,45)"/>
<path d="M0 0 C8 0 8 0 9.9375 1.375 C13.35230044 6.59763597 12.0549792 12.95228845 12 19 C5.07 19 -1.86 19 -9 19 C-6.03 12.73 -3.06 6.46 0 0 Z " fill="#66686A" transform="translate(113,54)"/>
<path d="M0 0 C3.31894181 3.92238578 4.86046301 7.65283994 5.4375 12.75 C5.31375 13.636875 5.19 14.52375 5.0625 15.4375 C2.0625 17.4375 2.0625 17.4375 -0.3347168 17.26000977 C-3.25384411 16.33753158 -5.14227966 15.11960515 -7.58203125 13.27734375 C-8.42314453 12.64892578 -9.26425781 12.02050781 -10.13085938 11.37304688 C-10.99517578 10.71369141 -11.85949219 10.05433594 -12.75 9.375 C-13.63365234 8.71177734 -14.51730469 8.04855469 -15.42773438 7.36523438 C-17.60365102 5.73035646 -19.77315981 4.08765466 -21.9375 2.4375 C-15.48179048 -1.86630635 -7.10533643 -3.77943427 0 0 Z " fill="#666667" transform="translate(112.9375,5.5625)"/>
<path d="M0 0 C19.14 0 38.28 0 58 0 C58 1.32 58 2.64 58 4 C38.53 4 19.06 4 -1 4 C-0.67 2.68 -0.34 1.36 0 0 Z " fill="#65686B" transform="translate(18,94)"/>
<path d="M0 0 C6.34257749 0.46982055 6.34257749 0.46982055 8.9375 2.5625 C9.288125 3.036875 9.63875 3.51125 10 4 C11.010625 3.649375 12.02125 3.29875 13.0625 2.9375 C16.98605626 1.8335034 20.01532961 1.94744556 24 3 C26.20703125 5.0546875 26.20703125 5.0546875 28 7 C25.41877492 7.84039886 22.83536099 8.67250556 20.25 9.5 C19.52039063 9.73847656 18.79078125 9.97695313 18.0390625 10.22265625 C17.33007812 10.44824219 16.62109375 10.67382812 15.890625 10.90625 C14.91657715 11.22045898 14.91657715 11.22045898 13.92285156 11.54101562 C12 12 12 12 8 12 C6.31183067 10.35511706 4.64646685 8.68662458 3 7 C0.33466965 5.680982 0.33466965 5.680982 -2 5 C-1.125 1.125 -1.125 1.125 0 0 Z " fill="#4F4E4E" transform="translate(15,39)"/>
<path d="M0 0 C2.3125 2.0625 2.3125 2.0625 4 4 C-12.15359235 11.51329877 -12.15359235 11.51329877 -18.25390625 10.69921875 C-20.51959825 9.79192822 -22.18286755 8.62243969 -24 7 C-24 6.34 -24 5.68 -24 5 C-20.9437562 3.95973869 -17.87924888 2.94632841 -14.8125 1.9375 C-13.94818359 1.64294922 -13.08386719 1.34839844 -12.19335938 1.04492188 C-11.35224609 0.77099609 -10.51113281 0.49707031 -9.64453125 0.21484375 C-8.87471924 -0.04176025 -8.10490723 -0.29836426 -7.31176758 -0.56274414 C-4.54469666 -1.08611768 -2.68829163 -0.80484268 0 0 Z " fill="#4F4F50" transform="translate(84,27)"/>
<path d="M0 0 C6.875 3.625 6.875 3.625 8 7 C4.9437562 8.04026131 1.87924888 9.05367159 -1.1875 10.0625 C-2.05181641 10.35705078 -2.91613281 10.65160156 -3.80664062 10.95507812 C-4.64775391 11.22900391 -5.48886719 11.50292969 -6.35546875 11.78515625 C-7.12528076 12.04176025 -7.89509277 12.29836426 -8.68823242 12.56274414 C-13.58279102 13.48851819 -16.97425546 11.64548927 -21 9 C-17.29967609 6.96956585 -13.36858943 5.69089537 -9.375 4.375 C-8.694375 4.14554688 -8.01375 3.91609375 -7.3125 3.6796875 C-2.25344122 2 -2.25344122 2 0 2 C0 1.34 0 0.68 0 0 Z " fill="#BCCEF8" transform="translate(57,32)"/>
<path d="M0 0 C0.33 0.99 0.66 1.98 1 3 C3.01508358 3.73323796 3.01508358 3.73323796 5 4 C2.4430558 4.89538117 -0.11823525 5.76634233 -2.6875 6.625 C-3.40873047 6.88023438 -4.12996094 7.13546875 -4.87304688 7.3984375 C-8.19523983 8.49066532 -10.30218962 9.15156953 -13.76953125 8.3984375 C-16.22396343 6.8595816 -18.06555597 5.14938225 -20 3 C-19.24074219 2.79503906 -18.48148437 2.59007812 -17.69921875 2.37890625 C-16.20841797 1.97478516 -16.20841797 1.97478516 -14.6875 1.5625 C-13.70136719 1.29566406 -12.71523437 1.02882813 -11.69921875 0.75390625 C-7.15862505 -0.51430588 -4.68940718 -0.93788144 0 0 Z " fill="#BCCDF8" transform="translate(101,22)"/>
<path d="M0 0 C8.25 0 16.5 0 25 0 C25 1.32 25 2.64 25 4 C16.75 4 8.5 4 0 4 C0 2.68 0 1.36 0 0 Z " fill="#656668" transform="translate(18,106)"/>
</svg>
